<?xml version="1.0" encoding="UTF-8"?>
<!-- Generator: Adobe Illustrator 16.0.0, SVG Export Plug-In . SVG Version: 6.00 Build 0)  -->
<!DOCTYPE svg PUBLIC "-//W3C//DTD SVG 1.1//EN" "http://www.w3.org/Graphics/SVG/1.1/DTD/svg11.dtd">
<svg version="1.1" id="Layer_1" xmlns="http://www.w3.org/2000/svg" xmlns:xlink="http://www.w3.org/1999/xlink" x="0px" y="0px" width="160px" height="107px" viewBox="0 0 160 107" enable-background="new 0 0 160 107" xml:space="preserve">
<g>
	<defs>
		<path id="SVGID_1_" d="M103.339,59.977c-0.747,1.197-2.054,3.311-4.44,5.682l10.894,10.99c2.639-2.602,5.052-5.708,6.913-8.889    C116.705,67.76,103.462,59.977,103.339,59.977L103.339,59.977"/>
	</defs>
	<clipPath id="SVGID_2_">
		<use xlink:href="#SVGID_1_" overflow="visible"/>
	</clipPath>
	
		<linearGradient id="SVGID_3_" gradientUnits="userSpaceOnUse" x1="-217.5293" y1="473.5513" x2="-217.2074" y2="473.5513" gradientTransform="matrix(143.8086 112.1985 112.1985 -143.8086 -21769.3125 92553.8125)">
		<stop offset="0" style="stop-color:#FFFFFF"/>
		<stop offset="0" style="stop-color:#FEFAFC"/>
		<stop offset="0" style="stop-color:#FCEDF4"/>
		<stop offset="0" style="stop-color:#F9D7E6"/>
		<stop offset="0" style="stop-color:#F4B8D2"/>
		<stop offset="0" style="stop-color:#EE91B9"/>
		<stop offset="0" style="stop-color:#E869A0"/>
		<stop offset="1" style="stop-color:#E869A0"/>
	</linearGradient>
	<polygon clip-path="url(#SVGID_2_)" fill="url(#SVGID_3_)" points="105.634,51.342 124.79,66.286 109.967,85.287 90.811,70.339     "/>
</g>
<g>
	<defs>
		<path id="SVGID_4_" d="M37.871,46.808c0,0,15.464,0.056,15.467-0.007c0.044-1.413,0.109-3.894,0.976-7.146l-14.948-4.008    C38.397,39.228,37.878,43.126,37.871,46.808"/>
	</defs>
	<clipPath id="SVGID_5_">
		<use xlink:href="#SVGID_4_" overflow="visible"/>
	</clipPath>
	
		<linearGradient id="SVGID_6_" gradientUnits="userSpaceOnUse" x1="-218.124" y1="474.8228" x2="-217.8025" y2="474.8228" gradientTransform="matrix(-180.7452 -24.493 -24.493 180.7452 -27714.6797 -91118.75)">
		<stop offset="0" style="stop-color:#FFFFFF"/>
		<stop offset="0" style="stop-color:#FAFDFB"/>
		<stop offset="0" style="stop-color:#EDF6F0"/>
		<stop offset="0" style="stop-color:#D7EBDD"/>
		<stop offset="0" style="stop-color:#B8DBC2"/>
		<stop offset="0" style="stop-color:#90C7A0"/>
		<stop offset="0" style="stop-color:#60AE77"/>
		<stop offset="0" style="stop-color:#46A161"/>
		<stop offset="1" style="stop-color:#46A161"/>
	</linearGradient>
	<polygon clip-path="url(#SVGID_5_)" fill="url(#SVGID_6_)" points="54.018,49.052 36.379,46.663 38.169,33.459 55.804,35.851  "/>
</g>
<g>
	<defs>
		<path id="SVGID_7_" d="M39.3,35.885c0,0,14.924,4.057,14.942,3.996c0.407-1.354,1.111-3.731,2.789-6.65l-13.396-7.738    C41.769,28.699,40.26,32.33,39.3,35.885"/>
	</defs>
	<clipPath id="SVGID_8_">
		<use xlink:href="#SVGID_7_" overflow="visible"/>
	</clipPath>
	
		<linearGradient id="SVGID_9_" gradientUnits="userSpaceOnUse" x1="-218.3052" y1="474.7661" x2="-217.984" y2="474.7661" gradientTransform="matrix(-168.246 -70.4357 -70.4357 168.246 -3207.9141 -95207.9609)">
		<stop offset="0" style="stop-color:#FFFFFF"/>
		<stop offset="0" style="stop-color:#FAFDFB"/>
		<stop offset="0" style="stop-color:#EDF7EF"/>
		<stop offset="0" style="stop-color:#D7EDDA"/>
		<stop offset="0" style="stop-color:#B8E0BE"/>
		<stop offset="0" style="stop-color:#90CE99"/>
		<stop offset="0" style="stop-color:#60B96D"/>
		<stop offset="0" style="stop-color:#38A749"/>
		<stop offset="1" style="stop-color:#38A749"/>
	</linearGradient>
	<polygon clip-path="url(#SVGID_8_)" fill="url(#SVGID_9_)" points="54.389,46.26 34.155,37.788 41.944,19.174 62.179,27.648  "/>
</g>
<g>
	<defs>
		<path id="SVGID_10_" d="M43.471,25.729c0,0,13.425,7.681,13.457,7.628c0.734-1.208,2.014-3.335,4.374-5.736l-11.025-10.86    C47.669,19.395,45.292,22.53,43.471,25.729"/>
	</defs>
	<clipPath id="SVGID_11_">
		<use xlink:href="#SVGID_10_" overflow="visible"/>
	</clipPath>
	
		<linearGradient id="SVGID_12_" gradientUnits="userSpaceOnUse" x1="-218.4595" y1="474.6743" x2="-218.1372" y2="474.6743" gradientTransform="matrix(-145.1171 -110.4924 -110.4924 145.1171 20826.0469 -92974.8438)">
		<stop offset="0" style="stop-color:#FFFFFF"/>
		<stop offset="0" style="stop-color:#FBFDFA"/>
		<stop offset="0" style="stop-color:#F1F8ED"/>
		<stop offset="0" style="stop-color:#DFEED7"/>
		<stop offset="0" style="stop-color:#C6E2B8"/>
		<stop offset="0" style="stop-color:#A5D190"/>
		<stop offset="0" style="stop-color:#7FBD60"/>
		<stop offset="0" style="stop-color:#69B245"/>
		<stop offset="1" style="stop-color:#69B245"/>
	</linearGradient>
	<polygon clip-path="url(#SVGID_11_)" fill="url(#SVGID_12_)" points="54.756,42.004 35.444,27.301 50.017,8.167 69.325,22.87  "/>
</g>
<g>
	<defs>
		<path id="SVGID_13_" d="M50.219,16.882c0,0,10.897,10.975,10.943,10.932c1.03-0.968,2.828-2.678,5.74-4.364l-7.733-13.402    C55.951,11.893,52.828,14.282,50.219,16.882"/>
	</defs>
	<clipPath id="SVGID_14_">
		<use xlink:href="#SVGID_13_" overflow="visible"/>
	</clipPath>
	
		<linearGradient id="SVGID_15_" gradientUnits="userSpaceOnUse" x1="-218.5942" y1="474.5278" x2="-218.2719" y2="474.5278" gradientTransform="matrix(-110.4859 -145.1238 -145.1238 110.4859 44793.8359 -84104.8438)">
		<stop offset="0" style="stop-color:#FFFFFF"/>
		<stop offset="0" style="stop-color:#FCFDFA"/>
		<stop offset="0" style="stop-color:#F5F9ED"/>
		<stop offset="0" style="stop-color:#E8F1D7"/>
		<stop offset="0" style="stop-color:#D5E7B8"/>
		<stop offset="0" style="stop-color:#BED990"/>
		<stop offset="0" style="stop-color:#A2C860"/>
		<stop offset="0" style="stop-color:#8FBD3F"/>
		<stop offset="1" style="stop-color:#8FBD3F"/>
	</linearGradient>
	<polygon clip-path="url(#SVGID_14_)" fill="url(#SVGID_15_)" points="56.343,35.898 41.634,16.583 60.782,2.006 75.486,21.323  "/>
</g>
<g>
	<defs>
		<path id="SVGID_16_" d="M59.015,10.138c0,0,7.684,13.42,7.739,13.391c1.244-0.671,3.425-1.855,6.675-2.729l-4-14.947    C65.842,6.8,62.204,8.301,59.015,10.138"/>
	</defs>
	<clipPath id="SVGID_17_">
		<use xlink:href="#SVGID_16_" overflow="visible"/>
	</clipPath>
	
		<linearGradient id="SVGID_18_" gradientUnits="userSpaceOnUse" x1="-218.6787" y1="474.3638" x2="-218.3576" y2="474.3638" gradientTransform="matrix(-69.1589 -168.7654 -168.7654 69.1589 65012.2188 -69664.8359)">
		<stop offset="0" style="stop-color:#FFFFFF"/>
		<stop offset="0" style="stop-color:#FFFFFF"/>
		<stop offset="0" style="stop-color:#FFFFFF"/>
		<stop offset="0" style="stop-color:#C0CE30"/>
		<stop offset="1" style="stop-color:#C0CE30"/>
	</linearGradient>
	<polygon clip-path="url(#SVGID_17_)" fill="url(#SVGID_18_)" points="61.085,28.616 52.801,8.398 71.356,0.794 79.642,21.012  "/>
</g>
<g>
	<defs>
		<path id="SVGID_19_" d="M69.167,5.914c0,0,3.949,14.955,4.009,14.939c1.379-0.325,3.793-0.905,7.155-0.911L80.336,4.47    c-0.039,0-0.077,0-0.114,0C76.545,4.47,72.689,4.977,69.167,5.914"/>
	</defs>
	<clipPath id="SVGID_20_">
		<use xlink:href="#SVGID_19_" overflow="visible"/>
	</clipPath>
	
		<linearGradient id="SVGID_21_" gradientUnits="userSpaceOnUse" x1="-218.7231" y1="474.1782" x2="-218.4022" y2="474.1782" gradientTransform="matrix(-23.1175 -180.9093 -180.9093 23.1175 80805.8516 -50484.0508)">
		<stop offset="0" style="stop-color:#FFFFFF"/>
		<stop offset="0" style="stop-color:#FFFEFA"/>
		<stop offset="0" style="stop-color:#FDFDED"/>
		<stop offset="0" style="stop-color:#FBFAD7"/>
		<stop offset="0" style="stop-color:#F8F5B8"/>
		<stop offset="0" style="stop-color:#F4F090"/>
		<stop offset="0" style="stop-color:#EFE95F"/>
		<stop offset="0" style="stop-color:#EAE127"/>
		<stop offset="0" style="stop-color:#E8DF15"/>
		<stop offset="1" style="stop-color:#E8DF15"/>
	</linearGradient>
	<polygon clip-path="url(#SVGID_20_)" fill="url(#SVGID_21_)" points="69.345,22.271 67.106,4.735 80.155,3.065 82.398,20.604  "/>
</g>
<g>
	<defs>
		<path id="SVGID_22_" d="M80.074,4.464c0,0,0.038,15.465,0.102,15.468c1.413,0.031,3.894,0.081,7.151,0.928l3.916-14.971    c-3.528-0.932-7.361-1.426-10.991-1.426C80.19,4.463,80.132,4.464,80.074,4.464"/>
	</defs>
	<clipPath id="SVGID_23_">
		<use xlink:href="#SVGID_22_" overflow="visible"/>
	</clipPath>
	
		<linearGradient id="SVGID_24_" gradientUnits="userSpaceOnUse" x1="-218.7192" y1="473.9849" x2="-218.3967" y2="473.9849" gradientTransform="matrix(23.3678 -180.894 -180.894 -23.3678 90933.2891 -28441.8125)">
		<stop offset="0" style="stop-color:#FFFFFF"/>
		<stop offset="0" style="stop-color:#FFFFFA"/>
		<stop offset="0" style="stop-color:#FFFDED"/>
		<stop offset="0" style="stop-color:#FEFBD7"/>
		<stop offset="0" style="stop-color:#FEF9B8"/>
		<stop offset="0" style="stop-color:#FDF590"/>
		<stop offset="0" style="stop-color:#FCF15F"/>
		<stop offset="0" style="stop-color:#FBEB27"/>
		<stop offset="0" style="stop-color:#FAE800"/>
		<stop offset="1" style="stop-color:#FAE800"/>
	</linearGradient>
	<polygon clip-path="url(#SVGID_23_)" fill="url(#SVGID_24_)" points="77.989,20.59 80.255,3.045 93.325,4.733 91.061,22.279  "/>
</g>
<g>
	<defs>
		<path id="SVGID_25_" d="M86.948,20.709c1.349,0.42,3.722,1.151,6.622,2.859l7.877-13.318c-3.183-1.896-6.802-3.443-10.345-4.438    C91.103,5.812,86.888,20.692,86.948,20.709"/>
	</defs>
	<clipPath id="SVGID_26_">
		<use xlink:href="#SVGID_25_" overflow="visible"/>
	</clipPath>
	
		<linearGradient id="SVGID_27_" gradientUnits="userSpaceOnUse" x1="-218.6543" y1="473.7856" x2="-218.3322" y2="473.7856" gradientTransform="matrix(72.1943 -167.4966 -167.4966 -72.1943 95223.2656 -2372.4136)">
		<stop offset="0" style="stop-color:#FFFFFF"/>
		<stop offset="0" style="stop-color:#FFFEFA"/>
		<stop offset="0" style="stop-color:#FEFAED"/>
		<stop offset="0" style="stop-color:#FEF5D7"/>
		<stop offset="0" style="stop-color:#FDEDB8"/>
		<stop offset="0" style="stop-color:#FCE290"/>
		<stop offset="0" style="stop-color:#FAD65F"/>
		<stop offset="0" style="stop-color:#F9C726"/>
		<stop offset="0" style="stop-color:#F8C315"/>
		<stop offset="1" style="stop-color:#F8C315"/>
	</linearGradient>
	<polygon clip-path="url(#SVGID_26_)" fill="url(#SVGID_27_)" points="80.434,20.787 89.167,0.519 107.905,8.593 99.165,28.862  "/>
</g>
<g>
	<defs>
		<path id="SVGID_28_" d="M93.545,23.626c1.204,0.736,3.333,2.019,5.729,4.382L110.149,17c-2.63-2.614-5.765-4.994-8.96-6.82    C101.189,10.18,93.489,23.593,93.545,23.626"/>
	</defs>
	<clipPath id="SVGID_29_">
		<use xlink:href="#SVGID_28_" overflow="visible"/>
	</clipPath>
	
		<linearGradient id="SVGID_30_" gradientUnits="userSpaceOnUse" x1="-218.5586" y1="473.647" x2="-218.2367" y2="473.647" gradientTransform="matrix(110.6862 -144.9703 -144.9703 -110.6862 92936.6406 20789.0391)">
		<stop offset="0" style="stop-color:#FFFFFF"/>
		<stop offset="0" style="stop-color:#FFFDFA"/>
		<stop offset="0" style="stop-color:#FEF6ED"/>
		<stop offset="0" style="stop-color:#FCEBD7"/>
		<stop offset="0" style="stop-color:#FADBB8"/>
		<stop offset="0" style="stop-color:#F7C790"/>
		<stop offset="0" style="stop-color:#F3AE5F"/>
		<stop offset="0" style="stop-color:#EF9127"/>
		<stop offset="0" style="stop-color:#EF8E21"/>
		<stop offset="1" style="stop-color:#EF8E21"/>
	</linearGradient>
	<polygon clip-path="url(#SVGID_29_)" fill="url(#SVGID_30_)" points="84.894,21.443 99.625,2.145 118.747,16.746 104.016,36.042     "/>
</g>
<g>
	<defs>
		<path id="SVGID_31_" d="M99.023,27.749c0.956,1.042,2.641,2.864,4.285,5.798l13.508-7.554c-1.802-3.242-4.154-6.398-6.715-9.04    C110.102,16.954,98.979,27.703,99.023,27.749"/>
	</defs>
	<clipPath id="SVGID_32_">
		<use xlink:href="#SVGID_31_" overflow="visible"/>
	</clipPath>
	
		<linearGradient id="SVGID_33_" gradientUnits="userSpaceOnUse" x1="-218.4087" y1="473.5024" x2="-218.0868" y2="473.5024" gradientTransform="matrix(146.5817 -108.5469 -108.5469 -146.5817 83491.5703 45745.3438)">
		<stop offset="0" style="stop-color:#FFFFFF"/>
		<stop offset="0" style="stop-color:#FEFBFA"/>
		<stop offset="0" style="stop-color:#FDEFED"/>
		<stop offset="0" style="stop-color:#FADCD7"/>
		<stop offset="0" style="stop-color:#F6C0B8"/>
		<stop offset="0" style="stop-color:#F09D90"/>
		<stop offset="0" style="stop-color:#EA725F"/>
		<stop offset="0" style="stop-color:#E24027"/>
		<stop offset="0" style="stop-color:#E23F26"/>
		<stop offset="1" style="stop-color:#E23F26"/>
	</linearGradient>
	<polygon clip-path="url(#SVGID_32_)" fill="url(#SVGID_33_)" points="91.044,22.832 110.499,8.423 124.753,27.671 105.297,42.078     "/>
</g>
<g>
	<defs>
		<path id="SVGID_34_" d="M103.17,33.364c0.666,1.247,1.849,3.43,2.716,6.684l14.957-3.971c-0.942-3.588-2.437-7.227-4.264-10.423    C116.579,25.653,103.138,33.308,103.17,33.364"/>
	</defs>
	<clipPath id="SVGID_35_">
		<use xlink:href="#SVGID_34_" overflow="visible"/>
	</clipPath>
	
		<linearGradient id="SVGID_36_" gradientUnits="userSpaceOnUse" x1="-218.2427" y1="473.4253" x2="-217.9212" y2="473.4253" gradientTransform="matrix(168.9147 -68.7948 -68.7948 -168.9147 69513.0547 65000.7578)">
		<stop offset="0" style="stop-color:#FFFFFF"/>
		<stop offset="0" style="stop-color:#FEFAFB"/>
		<stop offset="0" style="stop-color:#FCEDEE"/>
		<stop offset="0" style="stop-color:#F9D7D8"/>
		<stop offset="0" style="stop-color:#F4B8BA"/>
		<stop offset="0" style="stop-color:#EE9093"/>
		<stop offset="0" style="stop-color:#E75F63"/>
		<stop offset="0" style="stop-color:#DF262C"/>
		<stop offset="0" style="stop-color:#DE2127"/>
		<stop offset="1" style="stop-color:#DE2127"/>
	</linearGradient>
	<polygon clip-path="url(#SVGID_35_)" fill="url(#SVGID_36_)" points="98.114,27.703 118.323,19.47 125.868,37.999 105.658,46.229     "/>
</g>
<g>
	<defs>
		<path id="SVGID_37_" d="M105.841,39.844c0.333,1.375,0.93,3.784,0.954,7.15l15.474-0.093c-0.013-3.707-0.546-7.604-1.515-11.158    C120.754,35.743,105.823,39.783,105.841,39.844"/>
	</defs>
	<clipPath id="SVGID_38_">
		<use xlink:href="#SVGID_37_" overflow="visible"/>
	</clipPath>
	
		<linearGradient id="SVGID_39_" gradientUnits="userSpaceOnUse" x1="-218.0649" y1="473.3892" x2="-217.744" y2="473.3892" gradientTransform="matrix(180.77 -24.2286 -24.2286 -180.77 50969.043 80337.1328)">
		<stop offset="0" style="stop-color:#FFFFFF"/>
		<stop offset="0" style="stop-color:#FEFAFB"/>
		<stop offset="0" style="stop-color:#FAEDEE"/>
		<stop offset="0" style="stop-color:#F3D7D8"/>
		<stop offset="0" style="stop-color:#EAB8BA"/>
		<stop offset="0" style="stop-color:#DE9093"/>
		<stop offset="0" style="stop-color:#CF5F63"/>
		<stop offset="0" style="stop-color:#BE272C"/>
		<stop offset="0" style="stop-color:#BD2227"/>
		<stop offset="1" style="stop-color:#BD2227"/>
	</linearGradient>
	<polygon clip-path="url(#SVGID_38_)" fill="url(#SVGID_39_)" points="104.345,35.941 121.977,33.577 123.749,46.795    106.113,49.159  "/>
</g>
<g>
	<defs>
		<path id="SVGID_40_" d="M106.785,46.73c-0.035,1.414-0.082,3.895-0.931,7.153l14.975,3.915c0.946-3.585,1.439-7.485,1.423-11.17    C122.252,46.628,106.787,46.667,106.785,46.73"/>
	</defs>
	<clipPath id="SVGID_41_">
		<use xlink:href="#SVGID_40_" overflow="visible"/>
	</clipPath>
	
		<linearGradient id="SVGID_42_" gradientUnits="userSpaceOnUse" x1="-217.8779" y1="473.3901" x2="-217.5575" y2="473.3901" gradientTransform="matrix(180.8976 23.3683 23.3683 -180.8976 28431.1367 90774.3125)">
		<stop offset="0" style="stop-color:#FFFFFF"/>
		<stop offset="0" style="stop-color:#FEFAFB"/>
		<stop offset="0" style="stop-color:#FBEDEF"/>
		<stop offset="0" style="stop-color:#F7D7DB"/>
		<stop offset="0" style="stop-color:#F0B8C0"/>
		<stop offset="0" style="stop-color:#E8909C"/>
		<stop offset="0" style="stop-color:#DE5F71"/>
		<stop offset="0" style="stop-color:#D3273F"/>
		<stop offset="0" style="stop-color:#D11F38"/>
		<stop offset="1" style="stop-color:#D11F38"/>
	</linearGradient>
	<polygon clip-path="url(#SVGID_41_)" fill="url(#SVGID_42_)" points="106.125,44.543 123.688,46.812 121.999,59.883    104.437,57.615  "/>
</g>
<g>
	<defs>
		<path id="SVGID_43_" d="M105.914,53.643c-0.404,1.356-1.103,3.738-2.772,6.658l13.419,7.706c1.854-3.214,3.354-6.849,4.305-10.406    C120.865,57.601,106.156,53.642,105.914,53.643C105.915,53.642,105.914,53.642,105.914,53.643"/>
	</defs>
	<clipPath id="SVGID_44_">
		<use xlink:href="#SVGID_43_" overflow="visible"/>
	</clipPath>
	
		<linearGradient id="SVGID_45_" gradientUnits="userSpaceOnUse" x1="-217.6929" y1="473.4458" x2="-217.3705" y2="473.4458" gradientTransform="matrix(168.4294 69.9901 69.9901 -168.4294 3608.7656 95026.125)">
		<stop offset="0" style="stop-color:#FFFFFF"/>
		<stop offset="0" style="stop-color:#FEFAFC"/>
		<stop offset="0" style="stop-color:#FCEDF2"/>
		<stop offset="0" style="stop-color:#F9D7E3"/>
		<stop offset="0" style="stop-color:#F4B8CD"/>
		<stop offset="0" style="stop-color:#EE90B1"/>
		<stop offset="0" style="stop-color:#E7608F"/>
		<stop offset="0" style="stop-color:#E03370"/>
		<stop offset="1" style="stop-color:#E03370"/>
	</linearGradient>
	<polygon clip-path="url(#SVGID_44_)" fill="url(#SVGID_45_)" points="105.751,47.363 125.955,55.756 118.256,74.287 98.052,65.89     "/>
</g>
<g>
	<defs>
		<path id="SVGID_46_" d="M99.047,65.498c-1.023,0.974-2.813,2.695-5.714,4.401l7.819,13.354c3.204-1.866,6.311-4.275,8.902-6.889    C110.055,76.364,99.139,65.498,99.047,65.498L99.047,65.498"/>
	</defs>
	<clipPath id="SVGID_47_">
		<use xlink:href="#SVGID_46_" overflow="visible"/>
	</clipPath>
	
		<linearGradient id="SVGID_48_" gradientUnits="userSpaceOnUse" x1="-217.4048" y1="473.688" x2="-217.0825" y2="473.688" gradientTransform="matrix(111.3879 144.4417 144.4417 -111.3879 -44123.9453 84211.5625)">
		<stop offset="0" style="stop-color:#FFFFFF"/>
		<stop offset="0" style="stop-color:#FEFAFC"/>
		<stop offset="0" style="stop-color:#FAEDF4"/>
		<stop offset="0" style="stop-color:#F3D7E7"/>
		<stop offset="0" style="stop-color:#EBB8D4"/>
		<stop offset="0" style="stop-color:#DF90BC"/>
		<stop offset="0" style="stop-color:#D15F9E"/>
		<stop offset="0" style="stop-color:#CA468F"/>
		<stop offset="1" style="stop-color:#CA468F"/>
	</linearGradient>
	<polygon clip-path="url(#SVGID_47_)" fill="url(#SVGID_48_)" points="103.819,57.409 118.644,76.631 99.567,91.34 84.748,72.119     "/>
</g>
<g>
	<defs>
		<path id="SVGID_49_" d="M93.562,69.741c-1.24,0.678-3.417,1.878-6.658,2.771l4.095,14.923c3.579-0.973,7.208-2.495,10.39-4.349    C101.388,83.086,93.637,69.739,93.562,69.741L93.562,69.741"/>
	</defs>
	<clipPath id="SVGID_50_">
		<use xlink:href="#SVGID_49_" overflow="visible"/>
	</clipPath>
	
		<linearGradient id="SVGID_51_" gradientUnits="userSpaceOnUse" x1="-217.3145" y1="473.8579" x2="-216.9925" y2="473.8579" gradientTransform="matrix(70.1919 168.3458 168.3458 -70.1919 -64437.5625 69891.2031)">
		<stop offset="0" style="stop-color:#FFFFFF"/>
		<stop offset="0" style="stop-color:#FDFAFC"/>
		<stop offset="0" style="stop-color:#F7EDF5"/>
		<stop offset="0" style="stop-color:#EED7E8"/>
		<stop offset="0" style="stop-color:#E0B8D6"/>
		<stop offset="0" style="stop-color:#CF90BF"/>
		<stop offset="0" style="stop-color:#BA5FA3"/>
		<stop offset="0" style="stop-color:#A22683"/>
		<stop offset="0" style="stop-color:#A12582"/>
		<stop offset="1" style="stop-color:#A12582"/>
	</linearGradient>
	<polygon clip-path="url(#SVGID_50_)" fill="url(#SVGID_51_)" points="99.24,64.598 107.67,84.814 89.051,92.578 80.619,72.362  "/>
</g>
<g>
	<defs>
		<path id="SVGID_52_" d="M87.123,72.458c-1.372,0.33-3.782,0.917-7.146,0.935l0.056,15.475c3.706-0.004,7.604-0.525,11.161-1.486    c0,0-4.001-14.923-4.065-14.923H87.123"/>
	</defs>
	<clipPath id="SVGID_53_">
		<use xlink:href="#SVGID_52_" overflow="visible"/>
	</clipPath>
	
		<linearGradient id="SVGID_54_" gradientUnits="userSpaceOnUse" x1="-217.2744" y1="474.0454" x2="-216.9529" y2="474.0454" gradientTransform="matrix(23.8072 180.8277 180.8277 -23.8072 -80466.8516 50621.3047)">
		<stop offset="0" style="stop-color:#FFFFFF"/>
		<stop offset="0" style="stop-color:#FCFAFC"/>
		<stop offset="0" style="stop-color:#F4EDF4"/>
		<stop offset="0" style="stop-color:#E7D7E6"/>
		<stop offset="0" style="stop-color:#D5B8D2"/>
		<stop offset="0" style="stop-color:#BE90B9"/>
		<stop offset="0" style="stop-color:#A1609B"/>
		<stop offset="0" style="stop-color:#954B8E"/>
		<stop offset="1" style="stop-color:#954B8E"/>
	</linearGradient>
	<polygon clip-path="url(#SVGID_53_)" fill="url(#SVGID_54_)" points="90.998,71.005 93.316,88.587 80.167,90.321 77.854,72.737     "/>
</g>
<g>
	<defs>
		<path id="SVGID_55_" d="M69.1,87.439c3.585,0.946,7.486,1.442,11.17,1.425c0,0-0.038-15.465-0.103-15.467    c-1.415-0.031-3.893-0.083-7.151-0.929L69.1,87.439z"/>
	</defs>
	<clipPath id="SVGID_56_">
		<use xlink:href="#SVGID_55_" overflow="visible"/>
	</clipPath>
	
		<linearGradient id="SVGID_57_" gradientUnits="userSpaceOnUse" x1="-217.2803" y1="474.2251" x2="-216.9583" y2="474.2251" gradientTransform="matrix(-23.3678 180.894 180.894 23.3678 -90782.7891 28269.4062)">
		<stop offset="0" style="stop-color:#FFFFFF"/>
		<stop offset="0" style="stop-color:#FBFAFC"/>
		<stop offset="0" style="stop-color:#F0EDF4"/>
		<stop offset="0" style="stop-color:#DED7E7"/>
		<stop offset="0" style="stop-color:#C5B8D4"/>
		<stop offset="0" style="stop-color:#A490BB"/>
		<stop offset="0" style="stop-color:#7D609E"/>
		<stop offset="0" style="stop-color:#542E80"/>
		<stop offset="1" style="stop-color:#542E80"/>
	</linearGradient>
	<polygon clip-path="url(#SVGID_56_)" fill="url(#SVGID_57_)" points="82.356,72.737 80.086,90.3 67.015,88.613 69.283,71.049  "/>
</g>
<g>
	<defs>
		<path id="SVGID_58_" d="M59.061,83.254c3.222,1.842,6.864,3.33,10.422,4.268c0,0,3.963-14.949,3.901-14.967    c-1.356-0.399-3.739-1.087-6.667-2.747L59.061,83.254z"/>
	</defs>
	<clipPath id="SVGID_59_">
		<use xlink:href="#SVGID_58_" overflow="visible"/>
	</clipPath>
	
		<linearGradient id="SVGID_60_" gradientUnits="userSpaceOnUse" x1="-217.3359" y1="474.4067" x2="-217.0144" y2="474.4067" gradientTransform="matrix(-69.3636 168.6907 168.6907 69.3636 -95023.6875 3802.2271)">
		<stop offset="0" style="stop-color:#FFFFFF"/>
		<stop offset="0" style="stop-color:#FBFAFC"/>
		<stop offset="0" style="stop-color:#EDEDF4"/>
		<stop offset="0" style="stop-color:#D8D7E7"/>
		<stop offset="0" style="stop-color:#B9B8D4"/>
		<stop offset="0" style="stop-color:#9290BC"/>
		<stop offset="0" style="stop-color:#63609F"/>
		<stop offset="0" style="stop-color:#343082"/>
		<stop offset="1" style="stop-color:#343082"/>
	</linearGradient>
	<polygon clip-path="url(#SVGID_59_)" fill="url(#SVGID_60_)" points="79.677,72.37 71.366,92.582 52.831,84.96 61.144,64.75  "/>
</g>
<g>
	<defs>
		<path id="SVGID_61_" d="M50.317,76.568c2.637,2.611,5.773,4.986,8.971,6.812c0,0,7.686-13.425,7.627-13.459    c-1.206-0.731-3.333-2.014-5.734-4.372L50.317,76.568z"/>
	</defs>
	<clipPath id="SVGID_62_">
		<use xlink:href="#SVGID_61_" overflow="visible"/>
	</clipPath>
	
		<linearGradient id="SVGID_63_" gradientUnits="userSpaceOnUse" x1="-217.4351" y1="474.5747" x2="-217.1139" y2="474.5747" gradientTransform="matrix(-110.5079 145.1084 145.1084 110.5079 -92812.8828 -20845.9844)">
		<stop offset="0" style="stop-color:#FFFFFF"/>
		<stop offset="0" style="stop-color:#FAFBFD"/>
		<stop offset="0" style="stop-color:#EDF0F7"/>
		<stop offset="0" style="stop-color:#D7DDEC"/>
		<stop offset="0" style="stop-color:#B8C3DD"/>
		<stop offset="0" style="stop-color:#90A2CA"/>
		<stop offset="0" style="stop-color:#607AB3"/>
		<stop offset="0" style="stop-color:#2A4D9A"/>
		<stop offset="1" style="stop-color:#2A4D9A"/>
	</linearGradient>
	<polygon clip-path="url(#SVGID_62_)" fill="url(#SVGID_63_)" points="75.563,72.093 60.86,91.402 41.727,76.834 56.432,57.522  "/>
</g>
<g>
	<defs>
		<path id="SVGID_64_" d="M43.649,67.891c1.871,3.203,4.285,6.309,6.901,8.898c0,0,10.897-10.979,10.851-11.025    c-0.976-1.022-2.696-2.809-4.408-5.706L43.649,67.891z"/>
	</defs>
	<clipPath id="SVGID_65_">
		<use xlink:href="#SVGID_64_" overflow="visible"/>
	</clipPath>
	
		<linearGradient id="SVGID_66_" gradientUnits="userSpaceOnUse" x1="-217.5728" y1="474.7075" x2="-217.2508" y2="474.7075" gradientTransform="matrix(-144.2807 111.5631 111.5631 144.2807 -84271.0234 -44171.1562)">
		<stop offset="0" style="stop-color:#FFFFFF"/>
		<stop offset="0" style="stop-color:#FAFDFE"/>
		<stop offset="0" style="stop-color:#EDF6F9"/>
		<stop offset="0" style="stop-color:#D7EBF2"/>
		<stop offset="0" style="stop-color:#B8DCE8"/>
		<stop offset="0" style="stop-color:#90C8DC"/>
		<stop offset="0" style="stop-color:#5FAFCC"/>
		<stop offset="0" style="stop-color:#2693BA"/>
		<stop offset="0" style="stop-color:#0985B1"/>
		<stop offset="1" style="stop-color:#0985B1"/>
	</linearGradient>
	<polygon clip-path="url(#SVGID_65_)" fill="url(#SVGID_66_)" points="69.541,70.53 50.309,85.401 35.553,66.317 54.786,51.444  "/>
</g>
<g>
	<defs>
		<path id="SVGID_67_" d="M39.339,57.696c0.985,3.575,2.522,7.194,4.393,10.369c0,0,13.339-7.825,13.31-7.881    c-0.682-1.239-1.891-3.407-2.8-6.647L39.339,57.696z"/>
	</defs>
	<clipPath id="SVGID_68_">
		<use xlink:href="#SVGID_67_" overflow="visible"/>
	</clipPath>
	
		<linearGradient id="SVGID_69_" gradientUnits="userSpaceOnUse" x1="-217.7422" y1="474.7983" x2="-217.4202" y2="474.7983" gradientTransform="matrix(-168.0337 70.9388 70.9388 168.0337 -70189.0312 -64288.7578)">
		<stop offset="0" style="stop-color:#FFFFFF"/>
		<stop offset="0" style="stop-color:#FAFDFE"/>
		<stop offset="0" style="stop-color:#EDF8FA"/>
		<stop offset="0" style="stop-color:#D7F0F4"/>
		<stop offset="0" style="stop-color:#B8E4EB"/>
		<stop offset="0" style="stop-color:#90D5E0"/>
		<stop offset="0" style="stop-color:#60C2D2"/>
		<stop offset="0" style="stop-color:#4ABACC"/>
		<stop offset="1" style="stop-color:#4ABACC"/>
	</linearGradient>
	<polygon clip-path="url(#SVGID_68_)" fill="url(#SVGID_69_)" points="62.277,65.867 42.02,74.419 34.131,55.733 54.389,47.184  "/>
</g>
<g>
	<defs>
		<path id="SVGID_70_" d="M37.885,46.739c0.004,3.707,0.529,7.604,1.489,11.158c0,0,14.94-4.006,14.924-4.067    c-0.331-1.374-0.922-3.787-0.939-7.152L37.885,46.739z"/>
	</defs>
	<clipPath id="SVGID_71_">
		<use xlink:href="#SVGID_70_" overflow="visible"/>
	</clipPath>
	
		<linearGradient id="SVGID_72_" gradientUnits="userSpaceOnUse" x1="-217.9326" y1="474.8403" x2="-217.61" y2="474.8403" gradientTransform="matrix(-180.8239 23.8318 23.8318 180.8239 -50643.293 -80621.0312)">
		<stop offset="0" style="stop-color:#FFFFFF"/>
		<stop offset="0" style="stop-color:#FAFDFC"/>
		<stop offset="0" style="stop-color:#EDF6F4"/>
		<stop offset="0" style="stop-color:#D7EBE6"/>
		<stop offset="0" style="stop-color:#B8DBD2"/>
		<stop offset="0" style="stop-color:#91C8B9"/>
		<stop offset="0" style="stop-color:#81C0AF"/>
		<stop offset="1" style="stop-color:#81C0AF"/>
	</linearGradient>
	<polygon clip-path="url(#SVGID_71_)" fill="url(#SVGID_72_)" points="55.767,57.708 38.165,60.026 36.433,46.87 54.032,44.551  "/>
</g>
<g>
	<path fill="#FFFFFF" d="M65.604,53.924c-1.875,0-2.062-1.473-2.062-7.147c0-5.003,0.16-6.717,1.956-6.717   c1.498,0,1.821,1.231,1.821,4.016h4.333v-0.805c0-4.494-2.166-6.208-6.129-6.208c-6.344,0-6.638,4.898-6.638,9.796   c0,5.753,0.455,10.066,6.212,10.066c5.566,0,6.716-3.08,6.716-7.202v-0.669h-4.337C67.477,52.023,67.236,53.924,65.604,53.924z    M82.739,46.513v-0.054c1.818-0.35,2.995-2.062,2.995-4.31c0-3.187-2.139-4.712-5.431-4.712h-6.988v19.11h6.637   c5.325,0,6.317-3.05,6.317-5.301C86.27,47.34,84.155,46.724,82.739,46.513z M77.81,40.757h1.264c1.629,0,2.164,1.099,2.164,2.062   c0,1.364-0.614,2.247-2.193,2.247H77.81V40.757z M79.179,53.231H77.81v-5.167h1.448c1.39,0,2.356,0.775,2.356,2.674   C81.614,52.103,80.996,53.231,79.179,53.231z M94.274,37.063c-5.91,0-6.713,3.856-6.713,9.931c0,6.078,0.803,9.928,6.713,9.928   c6.345,0,6.718-4.628,6.718-9.928C100.992,41.692,100.619,37.063,94.274,37.063z M94.253,53.924c-1.795,0-2.036-1.686-2.036-6.93   c0-5.248,0.241-6.934,2.036-6.934c1.818,0,2.084,1.687,2.084,6.934C96.337,52.239,96.071,53.924,94.253,53.924z"/>
	<g>
		<path fill="#FFFFFF" d="M13.251,103.907c-0.402,0.202-1.306,0.416-2.483,0.416c-3.345,0-5.067-2.081-5.067-4.837    c0-3.302,2.354-5.139,5.283-5.139c1.134,0,1.995,0.229,2.383,0.431l-0.446,1.736c-0.445-0.187-1.062-0.358-1.837-0.358    c-1.736,0-3.086,1.048-3.086,3.202c0,1.938,1.149,3.157,3.101,3.157c0.661,0,1.393-0.144,1.823-0.315L13.251,103.907z"/>
		<path fill="#FFFFFF" d="M20.558,100.59c0,2.57-1.823,3.748-3.704,3.748c-2.052,0-3.631-1.35-3.631-3.617    c0-2.269,1.492-3.718,3.746-3.718C19.122,97.003,20.558,98.481,20.558,100.59z M15.476,100.664c0,1.205,0.502,2.11,1.436,2.11    c0.847,0,1.392-0.848,1.392-2.11c0-1.048-0.402-2.109-1.392-2.109C15.863,98.554,15.476,99.629,15.476,100.664z"/>
		<path fill="#FFFFFF" d="M21.19,99.401c0-0.877-0.029-1.623-0.058-2.24h1.837l0.101,0.947h0.042    c0.302-0.444,0.92-1.104,2.125-1.104c0.905,0,1.622,0.459,1.924,1.19h0.028c0.259-0.359,0.574-0.645,0.905-0.847    c0.388-0.229,0.819-0.344,1.335-0.344c1.35,0,2.369,0.947,2.369,3.043v4.134h-2.125v-3.817c0-1.02-0.331-1.609-1.033-1.609    c-0.502,0-0.862,0.346-1.005,0.762c-0.058,0.157-0.086,0.389-0.086,0.56v4.105h-2.125v-3.934c0-0.889-0.315-1.493-1.004-1.493    c-0.561,0-0.89,0.431-1.02,0.79c-0.071,0.172-0.086,0.373-0.086,0.546v4.091H21.19V99.401z"/>
		<path fill="#FFFFFF" d="M32.817,99.515c0-0.918-0.029-1.709-0.058-2.354h1.895l0.101,0.977h0.029    c0.516-0.747,1.32-1.134,2.339-1.134c1.537,0,2.915,1.334,2.915,3.573c0,2.556-1.623,3.762-3.187,3.762    c-0.847,0-1.507-0.344-1.823-0.804h-0.029v3.488h-2.182V99.515z M34.999,101.166c0,0.173,0.015,0.33,0.043,0.46    c0.144,0.588,0.646,1.034,1.278,1.034c0.947,0,1.507-0.791,1.507-1.981c0-1.121-0.502-1.968-1.479-1.968    c-0.618,0-1.163,0.46-1.307,1.106c-0.028,0.115-0.043,0.258-0.043,0.387V101.166z"/>
		<path fill="#FFFFFF" d="M40.685,93.989h2.181v10.191h-2.181V93.989z"/>
		<path fill="#FFFFFF" d="M45.594,101.367c0.071,0.905,0.961,1.336,1.98,1.336c0.747,0,1.349-0.101,1.938-0.288l0.286,1.478    c-0.717,0.288-1.593,0.431-2.541,0.431c-2.383,0-3.746-1.378-3.746-3.573c0-1.779,1.105-3.746,3.546-3.746    c2.269,0,3.129,1.765,3.129,3.502c0,0.373-0.043,0.703-0.072,0.861H45.594z M48.163,99.874c0-0.53-0.23-1.421-1.234-1.421    c-0.919,0-1.292,0.833-1.35,1.421H48.163z"/>
		<path fill="#FFFFFF" d="M53.216,95.151v2.01h1.564v1.607h-1.564v2.542c0,0.847,0.201,1.233,0.861,1.233    c0.272,0,0.488-0.028,0.646-0.058l0.015,1.651c-0.288,0.114-0.804,0.186-1.421,0.186c-0.704,0-1.292-0.242-1.636-0.602    c-0.403-0.416-0.604-1.091-0.604-2.081v-2.872h-0.932v-1.607h0.932V95.64L53.216,95.151z"/>
		<path fill="#FFFFFF" d="M56.934,101.367c0.072,0.905,0.961,1.336,1.981,1.336c0.747,0,1.35-0.101,1.938-0.288l0.287,1.478    c-0.718,0.288-1.594,0.431-2.541,0.431c-2.383,0-3.748-1.378-3.748-3.573c0-1.779,1.105-3.746,3.546-3.746    c2.268,0,3.129,1.765,3.129,3.502c0,0.373-0.043,0.703-0.071,0.861H56.934z M59.503,99.874c0-0.53-0.229-1.421-1.234-1.421    c-0.919,0-1.292,0.833-1.35,1.421H59.503z"/>
		<path fill="#FFFFFF" d="M64.371,94.634c0.574-0.114,1.737-0.201,2.828-0.201c1.335,0,2.153,0.13,2.857,0.546    c0.674,0.358,1.162,1.019,1.162,1.894c0,0.862-0.502,1.666-1.593,2.068v0.029c1.105,0.301,1.924,1.133,1.924,2.383    c0,0.875-0.403,1.563-1.005,2.052c-0.704,0.561-1.881,0.877-3.804,0.877c-1.077,0-1.88-0.073-2.368-0.145V94.634z M66.538,98.337    h0.718c1.149,0,1.765-0.474,1.765-1.191c0-0.732-0.56-1.119-1.55-1.119c-0.474,0-0.747,0.028-0.933,0.058V98.337z M66.538,102.63    c0.216,0.029,0.474,0.029,0.847,0.029c0.99,0,1.867-0.374,1.867-1.393c0-0.977-0.876-1.363-1.967-1.363h-0.747V102.63z"/>
		<path fill="#FFFFFF" d="M78.868,101.926c0,0.919,0.029,1.665,0.059,2.254h-1.896l-0.1-0.99h-0.043    c-0.273,0.432-0.933,1.148-2.197,1.148c-1.421,0-2.468-0.891-2.468-3.057v-4.121h2.195v3.776c0,1.019,0.33,1.635,1.092,1.635    c0.602,0,0.948-0.415,1.091-0.76c0.057-0.129,0.073-0.302,0.073-0.474v-4.178h2.195V101.926z"/>
		<path fill="#FFFFFF" d="M79.889,102.272c0.4,0.243,1.234,0.53,1.881,0.53c0.659,0,0.932-0.23,0.932-0.589s-0.215-0.53-1.034-0.804    c-1.449-0.487-2.008-1.277-1.994-2.109c0-1.307,1.119-2.297,2.856-2.297c0.818,0,1.55,0.186,1.981,0.401l-0.389,1.508    c-0.315-0.173-0.918-0.402-1.521-0.402c-0.532,0-0.832,0.215-0.832,0.574c0,0.33,0.272,0.503,1.132,0.805    c1.335,0.459,1.896,1.133,1.91,2.166c0,1.308-1.034,2.268-3.042,2.268c-0.919,0-1.738-0.199-2.269-0.487L79.889,102.272z"/>
		<path fill="#FFFFFF" d="M87.67,95.209c0,0.602-0.46,1.09-1.178,1.09c-0.689,0-1.148-0.488-1.135-1.09    c-0.014-0.633,0.445-1.106,1.148-1.106C87.21,94.103,87.653,94.577,87.67,95.209z M85.414,104.18v-7.02h2.183v7.02H85.414z"/>
		<path fill="#FFFFFF" d="M88.63,99.401c0-0.877-0.028-1.623-0.058-2.24h1.896l0.1,0.962h0.044c0.286-0.444,1.005-1.119,2.167-1.119    c1.435,0,2.513,0.947,2.513,3.015v4.162h-2.183v-3.89c0-0.904-0.316-1.522-1.105-1.522c-0.603,0-0.962,0.416-1.105,0.819    c-0.058,0.128-0.086,0.345-0.086,0.545v4.048H88.63V99.401z"/>
		<path fill="#FFFFFF" d="M98.005,101.367c0.072,0.905,0.962,1.336,1.979,1.336c0.748,0,1.352-0.101,1.939-0.288l0.287,1.478    c-0.719,0.288-1.595,0.431-2.543,0.431c-2.383,0-3.744-1.378-3.744-3.573c0-1.779,1.104-3.746,3.545-3.746    c2.268,0,3.129,1.765,3.129,3.502c0,0.373-0.043,0.703-0.071,0.861H98.005z M100.573,99.874c0-0.53-0.229-1.421-1.233-1.421    c-0.919,0-1.292,0.833-1.35,1.421H100.573z"/>
		<path fill="#FFFFFF" d="M103.173,102.272c0.401,0.243,1.234,0.53,1.881,0.53c0.658,0,0.932-0.23,0.932-0.589    s-0.214-0.53-1.033-0.804c-1.45-0.487-2.01-1.277-1.996-2.109c0-1.307,1.121-2.297,2.858-2.297c0.816,0,1.549,0.186,1.98,0.401    l-0.389,1.508c-0.316-0.173-0.918-0.402-1.521-0.402c-0.532,0-0.832,0.215-0.832,0.574c0,0.33,0.271,0.503,1.134,0.805    c1.335,0.459,1.895,1.133,1.907,2.166c0,1.308-1.031,2.268-3.041,2.268c-0.919,0-1.738-0.199-2.27-0.487L103.173,102.272z"/>
		<path fill="#FFFFFF" d="M108.685,102.272c0.401,0.243,1.234,0.53,1.881,0.53c0.661,0,0.934-0.23,0.934-0.589    s-0.216-0.53-1.034-0.804c-1.451-0.487-2.01-1.277-1.994-2.109c0-1.307,1.118-2.297,2.855-2.297c0.819,0,1.551,0.186,1.98,0.401    l-0.387,1.508c-0.315-0.173-0.919-0.402-1.523-0.402c-0.529,0-0.831,0.215-0.831,0.574c0,0.33,0.272,0.503,1.134,0.805    c1.335,0.459,1.895,1.133,1.91,2.166c0,1.308-1.034,2.268-3.044,2.268c-0.919,0-1.737-0.199-2.269-0.487L108.685,102.272z"/>
		<path fill="#FFFFFF" d="M125.322,99.243c0,3.172-1.924,5.096-4.75,5.096c-2.872,0-4.553-2.168-4.553-4.924    c0-2.9,1.854-5.067,4.709-5.067C123.7,94.347,125.322,96.573,125.322,99.243z M118.332,99.372c0,1.896,0.89,3.23,2.354,3.23    c1.478,0,2.326-1.407,2.326-3.288c0-1.736-0.835-3.229-2.34-3.229C119.191,96.084,118.332,97.491,118.332,99.372z"/>
		<path fill="#FFFFFF" d="M126.026,99.401c0-0.877-0.029-1.623-0.06-2.24h1.896l0.1,0.962h0.044    c0.286-0.444,1.006-1.119,2.167-1.119c1.435,0,2.514,0.947,2.514,3.015v4.162h-2.184v-3.89c0-0.904-0.316-1.522-1.104-1.522    c-0.604,0-0.962,0.416-1.106,0.819c-0.057,0.128-0.086,0.345-0.086,0.545v4.048h-2.181V99.401z"/>
		<path fill="#FFFFFF" d="M133.722,93.989h2.181v10.191h-2.181V93.989z"/>
		<path fill="#FFFFFF" d="M139.204,95.209c0,0.602-0.46,1.09-1.177,1.09c-0.689,0-1.148-0.488-1.135-1.09    c-0.014-0.633,0.445-1.106,1.148-1.106S139.189,94.577,139.204,95.209z M136.95,104.18v-7.02h2.183v7.02H136.95z"/>
		<path fill="#FFFFFF" d="M140.166,99.401c0-0.877-0.028-1.623-0.059-2.24h1.896l0.101,0.962h0.044    c0.286-0.444,1.003-1.119,2.167-1.119c1.435,0,2.512,0.947,2.512,3.015v4.162h-2.182v-3.89c0-0.904-0.316-1.522-1.104-1.522    c-0.604,0-0.962,0.416-1.106,0.819c-0.059,0.128-0.086,0.345-0.086,0.545v4.048h-2.182V99.401z"/>
		<path fill="#FFFFFF" d="M149.539,101.367c0.072,0.905,0.962,1.336,1.981,1.336c0.745,0,1.349-0.101,1.938-0.288l0.288,1.478    c-0.718,0.288-1.594,0.431-2.542,0.431c-2.383,0-3.747-1.378-3.747-3.573c0-1.779,1.105-3.746,3.548-3.746    c2.268,0,3.128,1.765,3.128,3.502c0,0.373-0.043,0.703-0.072,0.861H149.539z M152.109,99.874c0-0.53-0.23-1.421-1.235-1.421    c-0.918,0-1.291,0.833-1.349,1.421H152.109z"/>
	</g>
</g>
</svg>